<svg xmlns="http://www.w3.org/2000/svg" width="57.794" height="57.794" viewBox="0 0 57.794 57.794">
  <g id="Group_18355" data-name="Group 18355" transform="translate(-16.71 -322.544)">
    <g id="Component_10_1" data-name="Component 10 – 1" transform="translate(16.71 322.544)">
      <path id="Path_55936" data-name="Path 55936" d="M40.411,57.43a70.956,70.956,0,0,1-22.046,0,20.414,20.414,0,0,1-17-17.018,70.341,70.341,0,0,1,0-22.046,20.4,20.4,0,0,1,17-17,70.341,70.341,0,0,1,22.046,0,20.414,20.414,0,0,1,17.018,17,70.956,70.956,0,0,1,0,22.046A20.424,20.424,0,0,1,40.411,57.43Z" transform="translate(-0.497 -0.497)" fill="#fff" opacity="0"/>
      <path id="Union_63" data-name="Union 63" d="M.9,29.882C.178,29.882,0,29.7,0,28.966a6.83,6.83,0,0,1,.373-2.872,5.837,5.837,0,0,1,4.614-3.626.88.88,0,0,0,.3-.075,3.845,3.845,0,0,1-2.51-1.535A3.654,3.654,0,0,1,2.13,18a3.748,3.748,0,0,1,7.422.383,3.8,3.8,0,0,1-3.219,4.023,6.345,6.345,0,0,1,3.69,1.708,7.694,7.694,0,0,1,5.372-2.946,5,5,0,0,1,.744-9.964,5,5,0,0,1,.484,9.964,8.14,8.14,0,0,1,2.972.916,7.646,7.646,0,0,1,2.324,1.969,18.1,18.1,0,0,1,1.79-1.077,14.9,14.9,0,0,1,1.877-.606,3.739,3.739,0,1,1,4.337-4.049,3.777,3.777,0,0,1-3.281,4.073c.36.075.647.111.92.186a5.7,5.7,0,0,1,4.388,4.728c.013.05.038.1.05.148v1.981a.873.873,0,0,1-.883.446ZM28.1,12.614c-.435-.235-.87-.446-1.293-.681a.394.394,0,0,0-.434-.012c-.461.26-.933.508-1.405.743s-.932-.075-.92-.681c.074-.421.161-.929.261-1.436a.535.535,0,0,0-.187-.583c-.336-.284-.633-.618-.969-.928a.686.686,0,0,1-.262-.768c.1-.31.361-.4.659-.433.46-.061.933-.136,1.393-.2a.458.458,0,0,0,.4-.285c.2-.458.435-.891.659-1.337a.614.614,0,0,1,.572-.409.633.633,0,0,1,.61.409c.224.446.447.891.659,1.337a.443.443,0,0,0,.4.285c.46.061.92.136,1.393.2a.7.7,0,0,1,.671.471.685.685,0,0,1-.286.73c-.348.346-.708.681-1.044,1.027a.5.5,0,0,0-.112.346c.074.5.161.978.248,1.474a.685.685,0,0,1-.224.73.547.547,0,0,1-.351.126A.956.956,0,0,1,28.1,12.614ZM6.89,12.638c-.433-.235-.869-.446-1.292-.693a.49.49,0,0,0-.547.012c-.434.248-.883.484-1.341.706-.486.223-.932-.087-.908-.694.075-.42.15-.928.249-1.435a.487.487,0,0,0-.162-.545c-.359-.322-.695-.668-1.044-1a.651.651,0,0,1-.2-.731.636.636,0,0,1,.6-.409c.471-.074.943-.148,1.417-.2a.465.465,0,0,0,.421-.31c.2-.446.436-.867.647-1.312a.659.659,0,0,1,.6-.421.643.643,0,0,1,.61.421c.213.433.435.867.634,1.312a.5.5,0,0,0,.447.31c.472.049.932.136,1.392.185a.69.69,0,0,1,.622.446A.663.663,0,0,1,8.805,9c-.361.346-.7.693-1.056,1.027a.392.392,0,0,0-.15.421c.1.495.173.978.261,1.473a.646.646,0,0,1-.236.693.6.6,0,0,1-.362.124A.838.838,0,0,1,6.89,12.638Zm6.03-3.205a.677.677,0,0,1-.237-.755c.136-.768.262-1.535.4-2.291a.386.386,0,0,0-.136-.408c-.558-.533-1.106-1.09-1.678-1.622a.664.664,0,0,1-.237-.755.7.7,0,0,1,.659-.433c.746-.1,1.5-.209,2.252-.321a.458.458,0,0,0,.4-.285c.323-.705.684-1.4,1.019-2.092A.646.646,0,0,1,16.6.47c.349.693.7,1.387,1.02,2.092a.458.458,0,0,0,.4.285c.758.1,1.5.223,2.262.321a.7.7,0,0,1,.66.433.688.688,0,0,1-.262.768c-.535.52-1.057,1.041-1.6,1.535a.587.587,0,0,0-.175.606c.136.755.261,1.511.4,2.266,0,.037.012.087.012.1a.629.629,0,0,1-.969.569c-.709-.346-1.405-.719-2.1-1.1a.475.475,0,0,0-.51,0c-.671.371-1.342.705-2.014,1.064a.959.959,0,0,1-.451.14A.581.581,0,0,1,12.92,9.433Z" transform="translate(13.29 13.956)" fill="#dce9ff" stroke="rgba(0,0,0,0)" stroke-miterlimit="10" stroke-width="1"/>
    </g>
  </g>
</svg>
