<svg class="hov-style" xmlns="http://www.w3.org/2000/svg" width="57.794" height="57.794" viewBox="0 0 57.794 57.794">
  <g id="Group_18359" data-name="Group 18359" transform="translate(-16.71 -139.327)">
    <g id="Component_8_3" data-name="Component 8 – 3" transform="translate(16.71 139.327)">
      <path id="Path_42416" data-name="Path 42416" d="M40.411,57.43a70.956,70.956,0,0,1-22.046,0,20.414,20.414,0,0,1-17-17.018,70.341,70.341,0,0,1,0-22.046,20.4,20.4,0,0,1,17-17,70.341,70.341,0,0,1,22.046,0,20.414,20.414,0,0,1,17.018,17,70.956,70.956,0,0,1,0,22.046A20.424,20.424,0,0,1,40.411,57.43Z" transform="translate(-0.497 -0.497)" fill="#fff" opacity="0"/>
      <path id="Path_55934" data-name="Path 55934" d="M15.44,0h.868a4.392,4.392,0,0,1,2.215,1.43q5.889,5.917,11.806,11.8A4.234,4.234,0,0,1,31.741,15.5v.744a.6.6,0,0,0-.049.111,2.892,2.892,0,0,1-2.954,2.435h-.4v.421q0,4.478,0,8.956a3.415,3.415,0,0,1-3.562,3.571q-2.356,0-4.711,0c-.8,0-1.142-.344-1.142-1.155q0-3.564,0-7.128a1.564,1.564,0,0,0-1.686-1.68c-.889,0-1.777,0-2.665,0a1.576,1.576,0,0,0-1.745,1.745q0,3.564,0,7.128a.963.963,0,0,1-1.083,1.09c-1.6,0-3.2.005-4.8,0a3.983,3.983,0,0,1-.889-.095,3.383,3.383,0,0,1-2.636-3.384c-.007-3.027,0-6.053,0-9.08v-.345a.476.476,0,0,0-.1-.035c-.155,0-.31,0-.464-.008A2.846,2.846,0,0,1,.4,17.331a2.908,2.908,0,0,1,.552-3.624Q7.08,7.58,13.2,1.452A4.446,4.446,0,0,1,15.44,0" transform="translate(13.29 13.173)" fill="#5576d1"/>
    </g>
  </g>
</svg>
