<svg xmlns="http://www.w3.org/2000/svg" width="57.794" height="57.794" viewBox="0 0 57.794 57.794">
  <g id="Group_18358" data-name="Group 18358" transform="translate(-16.71 -231.571)">
    <g id="Component_9_1" data-name="Component 9 – 1" transform="translate(16.71 231.571)">
      <path id="Path_55935" data-name="Path 55935" d="M40.411,57.43a70.956,70.956,0,0,1-22.046,0,20.414,20.414,0,0,1-17-17.018,70.341,70.341,0,0,1,0-22.046,20.4,20.4,0,0,1,17-17,70.341,70.341,0,0,1,22.046,0,20.414,20.414,0,0,1,17.018,17,70.956,70.956,0,0,1,0,22.046A20.424,20.424,0,0,1,40.411,57.43Z" transform="translate(-0.497 -0.497)" fill="#fff" opacity="0"/>
      <path id="Icon_awesome-calendar-alt" data-name="Icon awesome-calendar-alt" d="M0,28.942a3,3,0,0,0,2.994,2.994H24.95a3,3,0,0,0,2.994-2.994V11.976H0ZM19.96,16.716a.751.751,0,0,1,.748-.748H23.2a.751.751,0,0,1,.748.748v2.495a.751.751,0,0,1-.748.748H20.708a.751.751,0,0,1-.748-.748Zm0,7.984a.751.751,0,0,1,.748-.748H23.2a.751.751,0,0,1,.748.748V27.2a.751.751,0,0,1-.748.748H20.708a.751.751,0,0,1-.748-.748Zm-7.984-7.984a.751.751,0,0,1,.748-.748h2.495a.751.751,0,0,1,.748.748v2.495a.751.751,0,0,1-.748.748H12.724a.751.751,0,0,1-.748-.748Zm0,7.984a.751.751,0,0,1,.748-.748h2.495a.751.751,0,0,1,.748.748V27.2a.751.751,0,0,1-.748.748H12.724a.751.751,0,0,1-.748-.748ZM3.992,16.716a.751.751,0,0,1,.748-.748H7.235a.751.751,0,0,1,.748.748v2.495a.751.751,0,0,1-.748.748H4.74a.751.751,0,0,1-.748-.748Zm0,7.984a.751.751,0,0,1,.748-.748H7.235a.751.751,0,0,1,.748.748V27.2a.751.751,0,0,1-.748.748H4.74a.751.751,0,0,1-.748-.748ZM24.95,3.992H21.956V1a1,1,0,0,0-1-1h-2a1,1,0,0,0-1,1V3.992H9.98V1a1,1,0,0,0-1-1h-2a1,1,0,0,0-1,1V3.992H2.994A3,3,0,0,0,0,6.986V9.98H27.944V6.986A3,3,0,0,0,24.95,3.992Z" transform="translate(15.29 12.929)" fill="#dce9ff"/>
    </g>
  </g>
</svg>
