<svg xmlns="http://www.w3.org/2000/svg" width="32.997" height="30.882" viewBox="0 0 32.997 30.882">
  <path id="Union_63" data-name="Union 63" d="M-6.1,91.882c-.721,0-.895-.185-.895-.916a6.816,6.816,0,0,1,.373-2.872A5.838,5.838,0,0,1-2.01,84.468a.875.875,0,0,0,.3-.075,3.845,3.845,0,0,1-2.511-1.535A3.655,3.655,0,0,1-4.87,80,3.757,3.757,0,0,1-.992,76.941a3.754,3.754,0,0,1,3.544,3.442,3.807,3.807,0,0,1-3.22,4.023,6.343,6.343,0,0,1,3.691,1.708,7.692,7.692,0,0,1,5.371-2.947A5,5,0,0,1,9.139,73.2a5,5,0,0,1,.485,9.965,8.143,8.143,0,0,1,2.972.916,7.635,7.635,0,0,1,2.324,1.968,18.069,18.069,0,0,1,1.789-1.077,15.167,15.167,0,0,1,1.877-.607,3.739,3.739,0,1,1,4.338-4.047,3.779,3.779,0,0,1-3.281,4.073c.36.075.646.112.92.185a5.7,5.7,0,0,1,4.388,4.729c.013.049.038.1.05.149v1.981a.872.872,0,0,1-.883.446ZM21.1,74.614c-.436-.235-.87-.446-1.293-.68a.4.4,0,0,0-.435-.013c-.46.26-.932.508-1.4.743s-.932-.074-.92-.68c.075-.421.162-.929.261-1.436a.533.533,0,0,0-.186-.581c-.336-.284-.634-.619-.969-.929a.685.685,0,0,1-.261-.767c.1-.31.36-.4.659-.434.46-.062.932-.136,1.392-.2a.458.458,0,0,0,.4-.284c.2-.458.435-.891.659-1.337a.612.612,0,0,1,.572-.409.633.633,0,0,1,.609.409c.223.446.447.892.659,1.337a.443.443,0,0,0,.4.284c.46.062.92.136,1.392.2a.7.7,0,0,1,.67.471.682.682,0,0,1-.285.73c-.348.346-.709.681-1.044,1.028a.5.5,0,0,0-.113.346c.075.5.162.978.249,1.473a.685.685,0,0,1-.224.73.551.551,0,0,1-.352.127A.949.949,0,0,1,21.1,74.614Zm-21.206.025c-.435-.236-.87-.446-1.293-.693a.491.491,0,0,0-.547.012c-.434.247-.882.483-1.341.706-.486.223-.932-.086-.908-.693.074-.421.15-.928.249-1.436a.487.487,0,0,0-.163-.545c-.359-.321-.695-.668-1.043-1a.651.651,0,0,1-.2-.73.636.636,0,0,1,.6-.409c.472-.075.944-.148,1.418-.2a.465.465,0,0,0,.421-.31c.2-.445.436-.867.646-1.312a.66.66,0,0,1,.6-.421.642.642,0,0,1,.609.421c.212.434.435.867.634,1.312a.5.5,0,0,0,.448.31c.472.049.931.136,1.392.185a.687.687,0,0,1,.621.445A.658.658,0,0,1,1.8,71c-.36.347-.7.693-1.055,1.028a.392.392,0,0,0-.15.42c.1.495.174.978.261,1.473a.647.647,0,0,1-.237.693.6.6,0,0,1-.362.124A.835.835,0,0,1-.109,74.639ZM5.92,71.432a.674.674,0,0,1-.237-.755c.137-.767.261-1.535.4-2.29a.388.388,0,0,0-.137-.409c-.558-.532-1.107-1.089-1.678-1.622A.663.663,0,0,1,4.03,65.6a.694.694,0,0,1,.659-.433c.745-.1,1.5-.211,2.251-.322a.457.457,0,0,0,.4-.284c.323-.706.683-1.4,1.019-2.092a.646.646,0,0,1,1.243,0c.349.693.7,1.386,1.021,2.092a.455.455,0,0,0,.4.284c.758.1,1.5.223,2.262.322a.653.653,0,0,1,.4,1.2c-.535.52-1.057,1.04-1.6,1.535a.589.589,0,0,0-.175.607c.137.755.261,1.51.4,2.265,0,.037.013.086.013.1a.629.629,0,0,1-.969.569c-.708-.347-1.4-.718-2.1-1.1a.475.475,0,0,0-.51,0c-.67.372-1.342.706-2.013,1.065a.963.963,0,0,1-.452.14A.573.573,0,0,1,5.92,71.432Z" transform="translate(7.497 -61.5)" fill="#5576d1" stroke="rgba(0,0,0,0)" stroke-miterlimit="10" stroke-width="1"/>
</svg>
