<svg xmlns="http://www.w3.org/2000/svg" width="57.794" height="57.794" viewBox="0 0 57.794 57.794">
  <g id="Group_18360" data-name="Group 18360" transform="translate(-16.71 -673.594)">
    <g id="Component_11_1" data-name="Component 11 – 1" transform="translate(16.71 673.594)">
      <path id="Path_55937" data-name="Path 55937" d="M40.411,57.43a70.956,70.956,0,0,1-22.046,0,20.414,20.414,0,0,1-17-17.018,70.341,70.341,0,0,1,0-22.046,20.4,20.4,0,0,1,17-17,70.341,70.341,0,0,1,22.046,0,20.414,20.414,0,0,1,17.018,17,70.956,70.956,0,0,1,0,22.046A20.424,20.424,0,0,1,40.411,57.43Z" transform="translate(-0.497 -0.497)" fill="#fff" opacity="0"/>
      <g id="Icon_ionic-ios-document" data-name="Icon ionic-ios-document" transform="translate(8.977 8.968)">
        <path id="Path_49826" data-name="Path 49826" d="M22.121,11.852H29.4a.4.4,0,0,0,.4-.4h0a2.366,2.366,0,0,0-.856-1.831l-6.1-5.085a2.568,2.568,0,0,0-1.647-.592h0a.59.59,0,0,0-.592.592v5.8A1.518,1.518,0,0,0,22.121,11.852Z" transform="translate(1.823 0.001)" fill="#dce9ff"/>
        <path id="Path_49827" data-name="Path 49827" d="M20.345,10.334v-6.4H9.871A2.566,2.566,0,0,0,7.313,6.5V33.361A2.566,2.566,0,0,0,9.871,35.92H29.061a2.566,2.566,0,0,0,2.559-2.559V13.932H23.943A3.6,3.6,0,0,1,20.345,10.334Z" fill="#dce9ff"/>
      </g>
    </g>
  </g>
</svg>
