<svg id="Component_12_1" data-name="Component 12 – 1" xmlns="http://www.w3.org/2000/svg" width="57.794" height="57.794" viewBox="0 0 57.794 57.794">
  <path id="Path_55938" data-name="Path 55938" d="M40.411,57.43a70.956,70.956,0,0,1-22.046,0,20.414,20.414,0,0,1-17-17.018,70.341,70.341,0,0,1,0-22.046,20.4,20.4,0,0,1,17-17,70.341,70.341,0,0,1,22.046,0,20.414,20.414,0,0,1,17.018,17,70.956,70.956,0,0,1,0,22.046A20.424,20.424,0,0,1,40.411,57.43Z" transform="translate(-0.497 -0.497)" fill="#fff" opacity="0"/>
  <path id="Icon_awesome-chart-pie" data-name="Icon awesome-chart-pie" d="M30.959,16.894H17.04l9.27,9.27a.941.941,0,0,0,1.3.04,14.049,14.049,0,0,0,4.29-8.263.94.94,0,0,0-.942-1.047Zm-.929-3.8A14.112,14.112,0,0,0,16.941,0a.944.944,0,0,0-.985.95V14.078H29.081A.943.943,0,0,0,30.031,13.093Zm-16.891,3.8V2.975a.94.94,0,0,0-1.046-.942A14.068,14.068,0,0,0,.008,16.446,14.252,14.252,0,0,0,14.256,30.032,13.968,13.968,0,0,0,22.19,27.45a.932.932,0,0,0,.092-1.413Z" transform="translate(13.29 13.88)" fill="#dce9ff"/>
</svg>
