<svg xmlns="http://www.w3.org/2000/svg" width="57.794" height="57.794" viewBox="0 0 57.794 57.794">
  <g id="Group_18361" data-name="Group 18361" transform="translate(-16.709 -854.303)">
    <g id="Component_13_1" data-name="Component 13 – 1" transform="translate(16.709 854.303)">
      <path id="Path_55939" data-name="Path 55939" d="M40.411,57.43a70.956,70.956,0,0,1-22.046,0,20.414,20.414,0,0,1-17-17.018,70.341,70.341,0,0,1,0-22.046,20.4,20.4,0,0,1,17-17,70.341,70.341,0,0,1,22.046,0,20.414,20.414,0,0,1,17.018,17,70.956,70.956,0,0,1,0,22.046A20.424,20.424,0,0,1,40.411,57.43Z" transform="translate(-0.497 -0.497)" fill="#fff" opacity="0"/>
      <path id="Path_49828" data-name="Path 49828" d="M588.232,1219.315l.066-4.627-3.03-.81a11.832,11.832,0,0,0-1.185-2.976l1.653-2.667-3.222-3.324-2.716,1.567a12.184,12.184,0,0,0-2.943-1.269l-.714-3.06-4.643-.071-.81,3.036a11.955,11.955,0,0,0-2.976,1.179l-2.67-1.653-3.324,3.225,1.58,2.713a12.073,12.073,0,0,0-1.269,2.946l-3.06.714-.071,4.64,3.036.807a12.028,12.028,0,0,0,1.182,2.985l-1.656,2.667,3.228,3.321,2.719-1.58a11.891,11.891,0,0,0,2.94,1.272l.717,3.063,4.634.065.807-3.039a11.5,11.5,0,0,0,2.979-1.179l2.667,1.659,3.324-3.225-1.577-2.716a12.042,12.042,0,0,0,1.272-2.94Zm-14.755,5.677a8.211,8.211,0,1,1,8.332-8.089,8.211,8.211,0,0,1-8.332,8.089" transform="translate(-544.608 -1187.881)" fill="#dce9ff"/>
    </g>
  </g>
</svg>
