<svg xmlns="http://www.w3.org/2000/svg" width="16.004" height="12.803" viewBox="0 0 16.004 12.803">
  <g id="Group_18347" data-name="Group 18347" transform="translate(0 -2.75)">
    <path id="Icon_awesome-tags" data-name="Icon awesome-tags" d="M12.452,5.65l-5.3-5.3A1.2,1.2,0,0,0,6.3,0H1.2A1.2,1.2,0,0,0,0,1.2V6.3a1.2,1.2,0,0,0,.352.849l5.3,5.3a1.2,1.2,0,0,0,1.7,0l5.1-5.1A1.2,1.2,0,0,0,12.452,5.65ZM2.8,4A1.2,1.2,0,1,1,4,2.8,1.2,1.2,0,0,1,2.8,4ZM15.652,7.347l-5.1,5.1a1.2,1.2,0,0,1-1.7,0l-.009-.009L13.194,8.09a2.251,2.251,0,0,0,0-3.183L8.287,0H9.505a1.2,1.2,0,0,1,.849.352l5.3,5.3a1.2,1.2,0,0,1,0,1.7Z" transform="translate(0 2.75)" fill="#5b5b5b"/>
  </g>
</svg>
