<svg xmlns="http://www.w3.org/2000/svg" width="50.996" height="51" viewBox="0 0 50.996 51">
  <g id="Group_18355" data-name="Group 18355" transform="translate(-21.502 -60.655)">
    <g id="Component_14_2" data-name="Component 14 – 2" transform="translate(21.502 60.655)">
      <path id="Path_12128" data-name="Path 12128" d="M113.131,337.743a62.649,62.649,0,0,1-19.461,0,18.018,18.018,0,0,1-15-15.011,62.609,62.609,0,0,1,0-19.457,18.027,18.027,0,0,1,15-15.011,62.645,62.645,0,0,1,19.461,0,18.027,18.027,0,0,1,15.014,15.011,62.61,62.61,0,0,1,0,19.457,18.018,18.018,0,0,1-15.014,15.01Z" transform="translate(-77.91 -287.504)" fill="#e9f2ff"/>
      <g id="Icon_ionic-ios-notifications" data-name="Icon ionic-ios-notifications" transform="translate(9.964 10.595)">
        <path id="Path_55932" data-name="Path 55932" d="M17.248,31.243c1.706,0,2.639-1.207,2.639-2.908H14.6C14.6,30.037,15.537,31.243,17.248,31.243Z" transform="translate(-1.724 -5.364)" fill="#a3a3b1"/>
        <path id="Path_55933" data-name="Path 55933" d="M24.088,20.185c-.845-1.114-2.507-1.766-2.507-6.753,0-5.118-2.26-7.176-4.367-7.669-.2-.049-.34-.115-.34-.324V5.28a1.339,1.339,0,1,0-2.677,0v.159c0,.2-.143.274-.34.324-2.112.5-4.367,2.551-4.367,7.669,0,4.987-1.662,5.634-2.507,6.753a1.089,1.089,0,0,0,.872,1.745H23.221A1.089,1.089,0,0,0,24.088,20.185Z" transform="translate(0 0)" fill="#a3a3b1"/>
      </g>
    </g>
  </g>
</svg>
