<svg xmlns="http://www.w3.org/2000/svg" width="16.939" height="15.951" viewBox="0 0 16.939 15.951">
  <g id="Group_18354" data-name="Group 18354" transform="translate(0.5 -1.93)">
    <path id="Union_21" data-name="Union 21" d="M7.469,14.93a3.486,3.486,0,0,1-2.728-1.408.294.294,0,0,0-.283-.138c-.118.011-.238,0-.357,0a.406.406,0,0,1-.042-.007V6.227c.146,0,.3-.007.443,0a.225.225,0,0,0,.217-.111A2.332,2.332,0,0,1,6.07,5.132c.175-.041.356-.052.55-.079,0,.07.011.115.011.159,0,.3.015.6,0,.9a.532.532,0,0,0,.606.616c1.956-.011,3.912-.005,5.868-.005h1.12a1.029,1.029,0,0,1,.341,2.019.059.059,0,0,0-.04.036h.33a1.024,1.024,0,0,1,1.057.788.216.216,0,0,0,.03.052v.373a1.268,1.268,0,0,0-.05.126,1.027,1.027,0,0,1-.958.714,3.928,3.928,0,0,0-.409.017l.115.045a1.026,1.026,0,0,1-.325,1.991c-.344.007-.689,0-1.013,0a3.279,3.279,0,0,1,.453.292A.986.986,0,0,1,14,14.293a.966.966,0,0,1-.925.645c-1.043.005-2.086.013-3.13.013C9.117,14.951,8.293,14.946,7.469,14.93ZM.525,14.008A.476.476,0,0,1,0,13.475q0-1.843,0-3.686V6.149A.481.481,0,0,1,.543,5.6H2.58a.476.476,0,0,1,.533.525q0,3.679,0,7.358a.474.474,0,0,1-.519.523H.525Zm12.5-8.575a2.17,2.17,0,0,0-2.189-1.219A2.244,2.244,0,0,0,8.829,5.661c-.04.093-.078.135-.188.132-.352-.008-.7,0-1.077,0V.56c0-.386.175-.559.56-.559h5.7c.387,0,.562.172.563.555V5.79a7.01,7.01,0,0,0-.715,0,1.1,1.1,0,0,1-.117.007A.546.546,0,0,1,13.024,5.433Zm-2.5-3.259c-.005.211-.005.424,0,.635a.465.465,0,0,0,.931,0c.005-.1,0-.206,0-.31s0-.228,0-.341a.467.467,0,0,0-.463-.451h0A.465.465,0,0,0,10.523,2.174Zm-.715,3.61a1.405,1.405,0,0,1,2.362,0Z" transform="translate(0 2.43)" fill="#5b5b5b" stroke="rgba(0,0,0,0)" stroke-miterlimit="10" stroke-width="1"/>
  </g>
</svg>
