<svg xmlns="http://www.w3.org/2000/svg" width="14.101" height="17" viewBox="0 0 14.101 17">
  <g id="Group_18346" data-name="Group 18346" transform="translate(-145.497 -301.498)">
    <path id="Union_66" data-name="Union 66" d="M2160.579-21067c-.1-.047-.206-.078-.3-.131a.851.851,0,0,1-.423-.689c-.005-.158,0-.316,0-.492h8.418a1.382,1.382,0,0,0,1.328-.787,1.568,1.568,0,0,0,.137-.73v-11.377a4.677,4.677,0,0,1,.736.07.857.857,0,0,1,.619.9v12.217a.925.925,0,0,1-.36.83,2.573,2.573,0,0,1-.376.186Zm-1.6-1.814a.886.886,0,0,1-.942-.662,1.438,1.438,0,0,1-.032-.338q-.008-4.477-.005-8.953v-.18h2.709a1.257,1.257,0,0,0,1.344-1.35c0-.824,0-1.645-.005-2.471v-.232h6.207a.894.894,0,0,1,.989.984v12.217a.892.892,0,0,1-.989.984Zm1.757-3.83a.575.575,0,0,0-.333.152.344.344,0,0,0-.069.418.428.428,0,0,0,.413.26h3.027a.421.421,0,0,0,.444-.424.415.415,0,0,0-.434-.412q-.631,0-1.262,0C2161.923-21072.652,2161.328-21072.65,2160.733-21072.643Zm-.074-2.133a.41.41,0,0,0-.281.65.467.467,0,0,0,.423.18h5.968a.991.991,0,0,0,.217-.016.408.408,0,0,0,.238-.641.448.448,0,0,0-.4-.18h-6.058A.7.7,0,0,0,2160.659-21074.775Zm-.011-2.26a.405.405,0,0,0-.28.631.463.463,0,0,0,.418.2c1.005-.006,2.01-.006,3.01-.006h2.72c.137,0,.27.006.407,0a.4.4,0,0,0,.349-.254.386.386,0,0,0-.048-.4.5.5,0,0,0-.455-.18h-5.937A1.212,1.212,0,0,0,2160.648-21077.035Zm-2.212-2.412a.382.382,0,0,1-.4-.244.387.387,0,0,1,.122-.434l2.709-2.709a.387.387,0,0,1,.45-.117.391.391,0,0,1,.228.408c-.005.387,0,.777,0,1.17v1.121a.746.746,0,0,1-.783.8c-.259,0-.518,0-.776,0Z" transform="translate(-2012 21384.996)" fill="#5b5b5b" stroke="rgba(0,0,0,0)" stroke-miterlimit="10" stroke-width="1"/>
  </g>
</svg>
