<svg xmlns="http://www.w3.org/2000/svg" width="15.793" height="16.389" viewBox="0 0 15.793 16.389">
  <g id="Group_18349" data-name="Group 18349" transform="translate(-26 -463.283)">
    <g id="Group_16251" data-name="Group 16251" transform="translate(26 461.408)">
      <g id="Group_16246" data-name="Group 16246" transform="translate(0 2.375)">
        <path id="Path_42457" data-name="Path 42457" d="M18.457,2.377c0-.4,0-.762,0-1.128A1.184,1.184,0,0,1,19.669.008C20.047,0,20.426,0,20.8.008A1.177,1.177,0,0,1,22,1.24c0,.371,0,.741,0,1.139.419,0,.821-.009,1.223,0a1.1,1.1,0,0,1,1.02.666,1.435,1.435,0,0,1,.122.537c.018.377.013.757,0,1.135a1.184,1.184,0,0,1-1.23,1.2c-.371,0-.742,0-1.138,0,0,.365.011.716,0,1.065a1.751,1.751,0,0,1-.1.6,1.078,1.078,0,0,1-1,.691c-.436.017-.872.017-1.308,0a1.162,1.162,0,0,1-1.124-1.163c-.006-.389,0-.779,0-1.192-.4,0-.793,0-1.182,0a1.176,1.176,0,0,1-1.147-.905A1.253,1.253,0,0,1,16.1,4.73c0-.385-.007-.77,0-1.154a1.166,1.166,0,0,1,1.207-1.2c.377,0,.754,0,1.152,0m2.365,4.718V6.869c0-.474,0-.949,0-1.423a.616.616,0,0,1,.7-.709h1.648V3.558c-.572,0-1.129,0-1.686,0a.6.6,0,0,1-.665-.669c0-.494,0-.987,0-1.481,0-.067-.007-.135-.01-.2H19.644c0,.56,0,1.1,0,1.65a.615.615,0,0,1-.692.7c-.487,0-.974,0-1.462,0-.067,0-.135.008-.2.012V4.737H17.5c.494,0,.987,0,1.481,0a.607.607,0,0,1,.659.659c0,.314,0,.628,0,.942v.757Z" transform="translate(-9.086 0)" fill="#5b5b5b" stroke="rgba(0,0,0,0)" stroke-miterlimit="10" stroke-width="1"/>
        <path id="Icon_material-call" data-name="Icon material-call" d="M5.576,9.119a12.871,12.871,0,0,0,5.6,5.6l1.869-1.869a.845.845,0,0,1,.867-.2,9.692,9.692,0,0,0,3.033.484.852.852,0,0,1,.85.85v2.965a.852.852,0,0,1-.85.85A14.443,14.443,0,0,1,2.5,3.35a.852.852,0,0,1,.85-.85H6.323a.852.852,0,0,1,.85.85,9.652,9.652,0,0,0,.484,3.033.853.853,0,0,1-.212.867L5.576,9.119Z" transform="translate(-2.5 -1.904)" fill="#5b5b5b"/>
      </g>
    </g>
  </g>
</svg>
