<svg xmlns="http://www.w3.org/2000/svg" width="16.25" height="15.234" viewBox="0 0 16.25 15.234">
  <g id="Group_18343" data-name="Group 18343" transform="translate(0 -1)">
    <path id="Path_42454" data-name="Path 42454" d="M10.156,10.664a.508.508,0,0,1-.508.508H6.6a.509.509,0,0,1-.508-.508V9.141H0v4.57a1.562,1.562,0,0,0,1.523,1.523h13.2a1.562,1.562,0,0,0,1.523-1.523V9.141H10.156Zm4.57-7.617H12.188V1.523A1.562,1.562,0,0,0,10.664,0H5.586A1.562,1.562,0,0,0,4.063,1.523V3.047H1.523A1.562,1.562,0,0,0,0,4.57V8.125H16.25V4.57A1.562,1.562,0,0,0,14.727,3.047Zm-4.062,0H5.586V1.523h5.078Z" transform="translate(0 1)" fill="#5b5b5b"/>
  </g>
</svg>
