<svg xmlns="http://www.w3.org/2000/svg" width="62.5" height="62.497" viewBox="0 0 62.5 62.497">
  <g id="Group_18360" data-name="Group 18360" transform="translate(-15.75 -915.638)">
    <g id="Component_20_1" data-name="Component 20 – 1" transform="translate(15.75 915.638)">
      <g id="Group_17944" data-name="Group 17944" transform="translate(0 0)">
        <g id="addressBook-icon" transform="translate(0 0)">
          <path id="Path_12130" data-name="Path 12130" d="M121.074,349.07a76.78,76.78,0,0,1-23.849,0,22.081,22.081,0,0,1-18.389-18.395,76.724,76.724,0,0,1,0-23.843,22.091,22.091,0,0,1,18.389-18.4,76.773,76.773,0,0,1,23.849,0,22.092,22.092,0,0,1,18.4,18.395,76.724,76.724,0,0,1,0,23.843,22.081,22.081,0,0,1-18.4,18.395Z" transform="translate(-77.904 -287.505)" fill="#e9f2ff"/>
        </g>
        <path id="Path_49823" data-name="Path 49823" d="M0,13.306A13.3,13.3,0,1,1,13.309,26.6,13.246,13.246,0,0,1,0,13.306m13.342,5.552a5.562,5.562,0,1,0-.176-11.122,5.562,5.562,0,0,0,.176,11.122M2.149,8.307a12.3,12.3,0,0,0,0,9.982c1.382-.828,2.707-1.609,4.013-2.421a.6.6,0,0,0,.2-.524,7.957,7.957,0,0,1,.008-4.134.607.607,0,0,0-.214-.524c-1.309-.8-2.637-1.57-4.01-2.379M8.3,2.147c.837,1.39,1.623,2.71,2.433,4.014a.563.563,0,0,0,.466.231,7.521,7.521,0,0,1,4.184-.006.5.5,0,0,0,.44-.16c.826-1.336,1.629-2.685,2.466-4.079a12.388,12.388,0,0,0-9.99,0m.028,22.259a11.44,11.44,0,0,0,9.864-.031c-.78-1.32-1.552-2.646-2.355-3.953a.68.68,0,0,0-.527-.183c-1.015.049-2.027.165-3.042.181a7.678,7.678,0,0,1-1.444-.248l-2.5,4.233M24.455,8.36c-1.405.829-2.733,1.6-4.041,2.4-.123.075-.178.353-.17.532.045,1.035.153,2.068.167,3.1a7.214,7.214,0,0,1-.243,1.377l4.29,2.523a12.286,12.286,0,0,0,0-9.937" transform="translate(17.95 17.947)" fill="#a3a3b1"/>
      </g>
    </g>
  </g>
</svg>
