<svg xmlns="http://www.w3.org/2000/svg" width="54.463" height="53.912" viewBox="0 0 54.463 53.912">
  <g id="Group_18355" data-name="Group 18355" transform="translate(-18.377 -25.414)">
    <g id="Group_16137" data-name="Group 16137" transform="translate(16679.072 -4757.379)">
      <path id="Path_1431" data-name="Path 1431" d="M10.8,20.068c.185-.218.384-.433.56-.617a1.362,1.362,0,0,1,.176-.181l.054-.063a1.3,1.3,0,0,1,.189-.17l.011-.012a2.406,2.406,0,0,1,.2-.17,2.674,2.674,0,0,1,.22-.2c.035-.026.1-.079.158-.123l.022-.025a.586.586,0,0,1,.1-.091.849.849,0,0,0,.135-.123c.023-.012.033-.026.058-.027l.033-.038c.168-.132.338-.247.494-.36a1.588,1.588,0,0,1,.352-.231c.1-.067.169-.123.238-.16a.993.993,0,0,1,.159-.1c.088-.059.179-.114.273-.164l.247-.138a.808.808,0,0,1,.137-.073c.123-.057.247-.115.346-.158a1.047,1.047,0,0,1,.16-.073h.012a.012.012,0,0,1,.011-.014h0c.073-.028.123-.057.195-.086a.425.425,0,0,1,.123-.033c7.564-3.031,14.772-2.533,22.387-2.019l.706.052a9.351,9.351,0,0,0-.1-2.076l-.154-.763a.512.512,0,0,0-.051-.175c-.053-.218-.1-.338-.133-.494a5.076,5.076,0,0,0-.183-.513c-.091-.247-.179-.462-.279-.669a.643.643,0,0,1-.073-.138c-.073-.146-.155-.308-.226-.459l-.084-.159a.749.749,0,0,1-.1-.159.564.564,0,0,1-.058-.123.67.67,0,0,1-.135-.191,1.161,1.161,0,0,1-.123-.147,6.256,6.256,0,0,0-.524-.769c-.093-.112-.172-.212-.263-.312l-.236-.28c-.014-.023-.026-.033-.027-.044L35.8,7.191l-.311-.322a.466.466,0,0,1-.09-.088c-.247-.231-.411-.385-.586-.526a14.931,14.931,0,0,0-2.221-1.538l-.347-.176c-.273-.146-.547-.292-.844-.434l-.136-.06a5.887,5.887,0,0,0-.554-.231c-.307-.131-.513-.21-.726-.289a17.331,17.331,0,0,0-1.651-.561l-.281-.085c-.147-.037-.292-.085-.439-.11a.36.36,0,0,1-.123-.038c-.3-.084-.608-.167-.935-.237l-.247-.053c-.569-.123-1.15-.247-1.754-.339-.7-.123-1.412-.236-2.179-.306s-1.6-.162-2.435-.216l-.733-.038a5.078,5.078,0,0,0-.6-.025s-.553,0-1.04.025-.906.078-.906.078c-1.434.247-2.9.537-4.5.9A15.509,15.509,0,0,0,.343,20.948a16.242,16.242,0,0,0,1.224,3.477A89.578,89.578,0,0,0,8.9,36.787C6.217,28.325,8.217,23.12,10.8,20.068Z" transform="translate(-16660.684 4783.155)" fill="#fff"/>
      <path id="Path_1433" data-name="Path 1433" d="M44.1,33.856a17.937,17.937,0,0,1-6.243,3.29l-.6.142c-.211.052-.411.079-.6.123l-.165.025a12.637,12.637,0,0,1-9.512-2.558,1.166,1.166,0,0,1-.123-.123c-.726-.753-1.4-1.487-2.066-2.209a8.866,8.866,0,0,1-.617-.726A77.806,77.806,0,0,1,13.4,15.988a1.312,1.312,0,0,0-.16.083c-.123.094-.26.176-.407.27l-.068.042a5.4,5.4,0,0,0-.462.344.771.771,0,0,0-.09.067.222.222,0,0,1-.054.053.552.552,0,0,1-.133.117c-.011.012-.033.038-.057.041l-.011.012-.011.012a3.874,3.874,0,0,1-.479.42l-.033.038a.909.909,0,0,1-.123.1.123.123,0,0,1-.054.052l-.073.09a5.492,5.492,0,0,0-.449.494c-2.9,3.418-4.841,10.167,2.369,22.919a.568.568,0,0,1,.083.146c1.064,1.261,2.25,2.575,3.572,3.961a15.508,15.508,0,0,0,21.886.711,14.958,14.958,0,0,0,2.364-2.828,90.028,90.028,0,0,0,4.757-8.279A12.894,12.894,0,0,1,44.1,33.856Z" transform="translate(-16659.273 4786.565)" fill="#fff"/>
      <path id="Path_1434" data-name="Path 1434" d="M50.384,15.3C50.7,7.572,45.936,2.807,39.554.828a16.234,16.234,0,0,0-3.626-.67A90.186,90.186,0,0,0,21.6.45c.158.036.3.073.449.109a10.309,10.309,0,0,1,1.044.264c.206.043.4.1.6.155l.247.073c.647.189,1.257.391,1.831.617A6.767,6.767,0,0,1,26.591,2c.159.058.37.146.579.247l.184.08c.482.237.942.463,1.357.7a16.745,16.745,0,0,1,2.554,1.766,8.227,8.227,0,0,1,.679.617l.09.074.428.443a.818.818,0,0,1,.18.189,5.889,5.889,0,0,1,.541.673,5.2,5.2,0,0,1,.644.914.884.884,0,0,1,.147.215c.027.044.054.079.081.123.068.1.135.2.2.318h-.012c.014.023.027.035.028.057a4.627,4.627,0,0,1,.392.756c.014.023.028.058.042.08.147.31.273.61.394.922a5.686,5.686,0,0,1,.215.627c.033.116.051.188.08.268l.08.268c.03.08.067.247.1.4l.159.822a11.7,11.7,0,0,1,0,3.825,1.425,1.425,0,0,1-.032.192,1.212,1.212,0,0,1-.1.269,88.88,88.88,0,0,1-9.478,20.486A10.324,10.324,0,0,0,33,38.818,12.019,12.019,0,0,0,39.134,36S48.786,27.672,50.384,15.3Z" transform="translate(-16656.631 4782.793)" fill="#fff"/>
    </g>
  </g>
</svg>
