<svg xmlns="http://www.w3.org/2000/svg" width="50.996" height="51" viewBox="0 0 50.996 51">
  <g id="Group_18359" data-name="Group 18359" transform="translate(-21.502 -619.5)">
    <g id="Component_19_1" data-name="Component 19 – 1" transform="translate(21.502 619.5)">
      <path id="Path_12128" data-name="Path 12128" d="M113.131,337.743a62.649,62.649,0,0,1-19.461,0,18.018,18.018,0,0,1-15-15.011,62.609,62.609,0,0,1,0-19.457,18.027,18.027,0,0,1,15-15.011,62.645,62.645,0,0,1,19.461,0,18.027,18.027,0,0,1,15.014,15.011,62.61,62.61,0,0,1,0,19.457,18.018,18.018,0,0,1-15.014,15.01Z" transform="translate(-77.91 -287.504)" fill="#e9f2ff"/>
      <path id="Icon_ionic-md-eye-off" data-name="Icon ionic-md-eye-off" d="M13.692,8.625a5.186,5.186,0,0,1,5.2,5.162,4.965,4.965,0,0,1-.373,1.889l3.038,3.012a12.205,12.205,0,0,0,3.569-4.9A12.321,12.321,0,0,0,9.541,6.767L11.787,9A5.144,5.144,0,0,1,13.692,8.625ZM3.292,5.812,5.666,8.166l.48.475a12.147,12.147,0,0,0-3.9,5.146,12.339,12.339,0,0,0,16,6.872l.439.434,3.048,3.012,1.322-1.312L4.609,4.5Zm5.749,5.7,1.613,1.6a2.925,2.925,0,0,0-.082.669,3.1,3.1,0,0,0,3.12,3.094,2.934,2.934,0,0,0,.674-.082l1.613,1.6a5.175,5.175,0,0,1-7.49-4.615A5.1,5.1,0,0,1,9.04,11.515Zm4.483-.8L16.8,13.966l.02-.163a3.1,3.1,0,0,0-3.12-3.094Z" transform="translate(11.809 11.197)" fill="#a3a3b1"/>
    </g>
  </g>
</svg>
