<svg xmlns="http://www.w3.org/2000/svg" width="50.996" height="51" viewBox="0 0 50.996 51">
  <g id="Group_18358" data-name="Group 18358" transform="translate(-21.502 -537.5)">
    <g id="Group_18341" data-name="Group 18341" transform="translate(-17180.498 -170.5)">
      <g id="Component_18_1" data-name="Component 18 – 1" transform="translate(17202 708)">
        <path id="Path_12128" data-name="Path 12128" d="M113.131,337.743a62.649,62.649,0,0,1-19.461,0,18.018,18.018,0,0,1-15-15.011,62.609,62.609,0,0,1,0-19.457,18.027,18.027,0,0,1,15-15.011,62.645,62.645,0,0,1,19.461,0,18.027,18.027,0,0,1,15.014,15.011,62.61,62.61,0,0,1,0,19.457,18.018,18.018,0,0,1-15.014,15.01Z" transform="translate(-77.91 -287.504)" fill="#e9f2ff"/>
        <path id="Union_62" data-name="Union 62" d="M12.781,16.137c-.377-.383-.734-.788-1.1-1.184a9.589,9.589,0,0,0-6.336-3.169c-.115-.011-.229-.029-.354-.044v-6.8c.768-.16,1.528-.275,2.261-.482a9.282,9.282,0,0,0,4.332-2.687c.4-.433.8-.877,1.215-1.3A1.428,1.428,0,0,1,14.461.129a1.468,1.468,0,0,1,.954,1.436V15.058a1.475,1.475,0,0,1-.953,1.437,1.588,1.588,0,0,1-.6.126A1.493,1.493,0,0,1,12.781,16.137Zm-10.643.214a1.275,1.275,0,0,1-.621-1.095c-.019-.885-.006-1.769-.006-2.678a7.306,7.306,0,0,0,1.874.132c.358-.006.717-.012,1.075.013a.382.382,0,0,1,.018.084c0,.794.009,1.588,0,2.382a1.322,1.322,0,0,1-.766,1.242,1.614,1.614,0,0,1-.72.178A1.591,1.591,0,0,1,2.137,16.351ZM19.025,14.02c-.5-.479-.988-.965-1.477-1.453a.455.455,0,0,1-.093-.549.507.507,0,0,1,.521-.277,1.173,1.173,0,0,1,.291.166q.734.7,1.446,1.419a.455.455,0,0,1,.014.705.492.492,0,0,1-.341.15A.522.522,0,0,1,19.025,14.02ZM2.015,11.671A2.363,2.363,0,0,1,.035,9.434a20.7,20.7,0,0,1-.011-2.2A2.412,2.412,0,0,1,2.375,4.9C2.9,4.867,3.428,4.9,3.981,4.9v6.8c-.017.015-.029.033-.041.032-.195,0-.391,0-.587,0-.136,0-.271,0-.407,0A5.911,5.911,0,0,1,2.015,11.671ZM18.446,8.8c-.345-.009-.538-.2-.533-.5a.473.473,0,0,1,.532-.479c.48-.007.961,0,1.441,0s.961-.006,1.441,0a.48.48,0,0,1,.523.592c-.044.252-.224.387-.545.389-.681,0-1.363,0-2.045,0l-.488,0C18.663,8.807,18.555,8.806,18.446,8.8ZM17.454,4.6a.443.443,0,0,1,.091-.527q.6-.592,1.2-1.181c.1-.1.2-.208.315-.3a.484.484,0,0,1,.672,0,.456.456,0,0,1,.023.676c-.5.509-1.011,1.008-1.528,1.5a.764.764,0,0,1-.262.124A.484.484,0,0,1,17.454,4.6Z" transform="translate(15.001 17)" fill="#a3a3b1" stroke="rgba(0,0,0,0)" stroke-miterlimit="10" stroke-width="1"/>
      </g>
    </g>
  </g>
</svg>
