<svg xmlns="http://www.w3.org/2000/svg" width="17.036" height="15.047" viewBox="0 0 17.036 15.047">
  <g id="Group_18351" data-name="Group 18351" transform="translate(0.534 -1.496)">
    <path id="Union_20" data-name="Union 20" d="M7.013,13.643a.64.64,0,0,1,.076-.731,3.341,3.341,0,0,1,.461-.463.7.7,0,0,1,.97.985,2.954,2.954,0,0,1-.454.446,1.442,1.442,0,0,1-.346.161A.737.737,0,0,1,7.013,13.643ZM4.687,12.632a.627.627,0,0,1,.094-.729c.356-.38.724-.751,1.105-1.1a.694.694,0,0,1,.978.973c-.357.386-.733.756-1.117,1.113a1.036,1.036,0,0,1-.346.159A.719.719,0,0,1,4.687,12.632Zm5.093-.14c-.2-.194-.391-.389-.584-.586a1.606,1.606,0,0,0-1.129-.528c-.082,0-.12-.03-.126-.117A1.562,1.562,0,0,0,6.836,9.8.256.256,0,0,1,6.8,9.78a.1.1,0,0,1-.012-.017,1.641,1.641,0,0,0-2.2-2.2,1.676,1.676,0,0,0-2.906-.538c-.048-.138-.093-.259-.131-.382A2.538,2.538,0,0,0,.894,5.592C.65,5.351.41,5.105.172,4.858a.469.469,0,0,1,0-.728Q2.129,2.173,4.086.219A.463.463,0,0,1,4.791.2c.373.369.741.746,1.111,1.12.022.022.043.045.077.08-.04.042-.077.083-.116.122-.5.5-1,.993-1.49,1.492A1.387,1.387,0,0,0,4.134,4.8a1.984,1.984,0,0,0,1.26.859A2.291,2.291,0,0,0,7.582,5.1a.489.489,0,0,1,.767-.012,2.334,2.334,0,0,0,2.83.3c.022-.013.044-.024.07-.039.027.023.051.041.073.063q1.37,1.369,2.74,2.74A.7.7,0,1,1,13.1,9.178c-.37-.358-.728-.73-1.1-1.089a.718.718,0,0,0-.286-.175.44.44,0,0,0-.5.223.456.456,0,0,0,.081.56c.305.314.616.62.926.93.077.077.157.153.23.234a.7.7,0,1,1-1,.985c-.374-.362-.735-.737-1.11-1.1a.716.716,0,0,0-.286-.175.44.44,0,0,0-.495.211.455.455,0,0,0,.055.551c.154.168.32.327.481.49.235.237.475.467.7.71a.7.7,0,0,1-.456,1.175q-.034,0-.067,0A.7.7,0,0,1,9.78,12.491ZM3.029,10.977a.642.642,0,0,1,.1-.741c.256-.28.531-.543.8-.812.3-.305.607-.615.919-.912a.649.649,0,0,1,.724-.137.668.668,0,0,1,.444.589.6.6,0,0,1-.158.5c-.58.589-1.162,1.176-1.757,1.75a1.071,1.071,0,0,1-.356.169A.724.724,0,0,1,3.029,10.977Zm-1.3-1.31a.7.7,0,0,1-.208-1.141c.325-.329.648-.661.982-.981a.7.7,0,1,1,.985,1q-.483.5-.982.98a.682.682,0,0,1-.48.211A.744.744,0,0,1,1.725,9.666ZM11.32,4.031c-.076.071-.119.109-.159.148a1.677,1.677,0,0,1-1.84.336,4.132,4.132,0,0,1-.63-.338,1.392,1.392,0,0,0-1.6.12,1.9,1.9,0,0,1-.708.441,1.39,1.39,0,0,1-1.383-.352.449.449,0,0,1,0-.669c.246-.255.5-.5.75-.752.407-.4.809-.812,1.223-1.207A1.356,1.356,0,0,1,7.945,1.4h.5c.337,0,.673,0,1.011,0a1.1,1.1,0,0,0,.851-.352c.276-.29.565-.569.85-.852a.482.482,0,0,1,.782,0Q13.873,2.125,15.8,4.056a2.013,2.013,0,0,1,.2.29v.219a3.77,3.77,0,0,1-.265.339c-.308.319-.625.627-.937.941a1.047,1.047,0,0,0-.285.947c.022.146.019.3.029.463Z" transform="translate(0 1.996)" fill="#5b5b5b" stroke="rgba(0,0,0,0)" stroke-miterlimit="10" stroke-width="1"/>
  </g>
</svg>
