<svg xmlns="http://www.w3.org/2000/svg" width="16.329" height="10.886" viewBox="0 0 16.329 10.886">
  <g id="Group_18344" data-name="Group 18344" transform="translate(0 -4)">
    <path id="Icon_awesome-eye" data-name="Icon awesome-eye" d="M16.23,7.529A9.093,9.093,0,0,0,8.164,2.5,9.094,9.094,0,0,0,.1,7.529a.917.917,0,0,0,0,.828,9.093,9.093,0,0,0,8.066,5.029A9.094,9.094,0,0,0,16.23,8.357a.917.917,0,0,0,0-.828Zm-8.066,4.5a4.082,4.082,0,1,1,4.082-4.082A4.082,4.082,0,0,1,8.164,12.025Zm0-6.8a2.7,2.7,0,0,0-.718.107,1.356,1.356,0,0,1-1.9,1.9,2.715,2.715,0,1,0,2.614-2Z" transform="translate(0 1.5)" fill="#5576d1"/>
  </g>
</svg>
