<svg xmlns="http://www.w3.org/2000/svg" width="50.996" height="51" viewBox="0 0 50.996 51">
  <g id="Group_18356" data-name="Group 18356" transform="translate(-21.502 -375.5)">
    <g id="Component_16_1" data-name="Component 16 – 1" transform="translate(21.502 375.5)">
      <path id="Path_12128" data-name="Path 12128" d="M113.131,337.743a62.649,62.649,0,0,1-19.461,0,18.018,18.018,0,0,1-15-15.011,62.609,62.609,0,0,1,0-19.457,18.027,18.027,0,0,1,15-15.011,62.645,62.645,0,0,1,19.461,0,18.027,18.027,0,0,1,15.014,15.011,62.61,62.61,0,0,1,0,19.457,18.018,18.018,0,0,1-15.014,15.01Z" transform="translate(-77.91 -287.504)" fill="#e9f2ff"/>
      <path id="Union_79" data-name="Union 79" d="M-15154.653-118.345a1.732,1.732,0,0,1-.518-1.241v-7.075h-7.074a1.751,1.751,0,0,1-1.241-.514,1.745,1.745,0,0,1-.514-1.241,1.758,1.758,0,0,1,1.755-1.754h7.074v-7.075a1.759,1.759,0,0,1,1.759-1.758,1.758,1.758,0,0,1,1.754,1.758v7.075h7.075a1.757,1.757,0,0,1,1.754,1.754,1.755,1.755,0,0,1-1.754,1.754h-7.075v7.075a1.758,1.758,0,0,1-1.754,1.758A1.733,1.733,0,0,1-15154.653-118.345Z" transform="translate(15178.913 153.914)" fill="#a3a3b1"/>
    </g>
  </g>
</svg>
