<svg xmlns="http://www.w3.org/2000/svg" width="16.133" height="15.184" viewBox="0 0 16.133 15.184">
  <g id="Group_18352" data-name="Group 18352" transform="translate(0 -1.809)">
    <path id="Icon_awesome-chart-pie" data-name="Icon awesome-chart-pie" d="M15.652,8.541H8.615L13.3,13.227a.476.476,0,0,0,.658.02A7.1,7.1,0,0,0,16.128,9.07a.475.475,0,0,0-.476-.529Zm-.469-1.922A7.134,7.134,0,0,0,8.564,0a.477.477,0,0,0-.5.48V7.117H14.7A.477.477,0,0,0,15.182,6.619ZM6.643,8.541V1.5a.475.475,0,0,0-.529-.476A7.112,7.112,0,0,0,0,8.315a7.205,7.205,0,0,0,7.2,6.869,7.062,7.062,0,0,0,4.011-1.306.471.471,0,0,0,.047-.714Z" transform="translate(0 1.809)" fill="#5b5b5b"/>
  </g>
</svg>
