<svg xmlns="http://www.w3.org/2000/svg" width="15.927" height="13.44" viewBox="0 0 15.927 13.44">
  <g id="Group_18350" data-name="Group 18350" transform="translate(0 -3.183)">
    <path id="Icon_awesome-tasks" data-name="Icon awesome-tasks" d="M4.343,2.358a.373.373,0,0,0-.529,0L1.833,4.327l-.706-.688a.373.373,0,0,0-.529,0L.11,4.128a.373.373,0,0,0,0,.529L1.59,6.131a.4.4,0,0,0,.548,0l.485-.486L4.869,3.4a.376.376,0,0,0,0-.529Zm0,4.952a.373.373,0,0,0-.529,0L1.833,9.292,1.127,8.6A.373.373,0,0,0,.6,8.6L.11,9.093a.373.373,0,0,0,0,.529L1.587,11.1a.4.4,0,0,0,.548,0l.488-.488L4.868,8.364a.373.373,0,0,0,0-.526ZM1.991,12.7a1.493,1.493,0,1,0,0,2.986,1.493,1.493,0,1,0,0-2.986Zm13.439.5H6.471a.5.5,0,0,0-.5.5v1a.5.5,0,0,0,.5.5H15.43a.5.5,0,0,0,.5-.5v-1A.5.5,0,0,0,15.43,13.2Zm0-9.955H6.471a.5.5,0,0,0-.5.5v1a.5.5,0,0,0,.5.5H15.43a.5.5,0,0,0,.5-.5v-1A.5.5,0,0,0,15.43,3.244Zm0,4.977H6.471a.5.5,0,0,0-.5.5v1a.5.5,0,0,0,.5.5H15.43a.5.5,0,0,0,.5-.5v-1A.5.5,0,0,0,15.43,8.222Z" transform="translate(0 0.936)" fill="#5b5b5b"/>
  </g>
</svg>
