<svg xmlns="http://www.w3.org/2000/svg" width="15.964" height="9.579" viewBox="0 0 15.964 9.579">
  <g id="Group_18348" data-name="Group 18348" transform="translate(0 -4.562)">
    <path id="Icon_awesome-graduation-cap" data-name="Icon awesome-graduation-cap" d="M15.524,4.725,8.566,2.587a1.993,1.993,0,0,0-1.167,0L.441,4.725a.587.587,0,0,0,0,1.137l1.213.373A1.966,1.966,0,0,0,1.208,7.4a.77.77,0,0,0-.064,1.323L.507,11.593a.4.4,0,0,0,.389.486H2.3a.4.4,0,0,0,.39-.486L2.049,8.727A.768.768,0,0,0,2,7.417,1.177,1.177,0,0,1,2.52,6.5L7.4,8A2,2,0,0,0,8.566,8l6.958-2.138A.587.587,0,0,0,15.524,4.725ZM8.8,8.763a2.792,2.792,0,0,1-1.636,0L3.547,7.652l-.354,2.83c0,.882,2.144,1.6,4.789,1.6s4.789-.715,4.789-1.6l-.354-2.83L8.8,8.763Z" transform="translate(0 2.063)" fill="#5b5b5b"/>
  </g>
</svg>
