<svg xmlns="http://www.w3.org/2000/svg" width="50.996" height="51" viewBox="0 0 50.996 51">
  <g id="Group_18357" data-name="Group 18357" transform="translate(-21.502 -456.5)">
    <g id="Component_17_1" data-name="Component 17 – 1" transform="translate(21.502 456.5)">
      <path id="Path_12128" data-name="Path 12128" d="M113.131,337.743a62.649,62.649,0,0,1-19.461,0,18.018,18.018,0,0,1-15-15.011,62.609,62.609,0,0,1,0-19.457,18.027,18.027,0,0,1,15-15.011,62.645,62.645,0,0,1,19.461,0,18.027,18.027,0,0,1,15.014,15.011,62.61,62.61,0,0,1,0,19.457,18.018,18.018,0,0,1-15.014,15.01Z" transform="translate(-77.91 -287.504)" fill="#e9f2ff"/>
      <path id="Union_78" data-name="Union 78" d="M9.1,20.66H3.479A1.777,1.777,0,0,1,1.6,19.489a3.361,3.361,0,0,1-.27-1.057,5.486,5.486,0,0,1,.491-3.239,4.618,4.618,0,0,1,3.064-2.271,2.457,2.457,0,0,1,1.688.2,5.449,5.449,0,0,0,5.023.012A2.672,2.672,0,0,1,13.631,13a4.428,4.428,0,0,1,3.251,4.2,8.775,8.775,0,0,1-.166,1.942,1.738,1.738,0,0,1-1.284,1.426,2.912,2.912,0,0,1-.719.086q-1.512.005-3.024,0Zm.011-8.924a5.059,5.059,0,1,1,.008,0Z" transform="translate(16.413 14.319)" fill="#a3a3b1" stroke="rgba(0,0,0,0)" stroke-miterlimit="10" stroke-width="1"/>
    </g>
  </g>
</svg>
